<svg version="1.2" xmlns="http://www.w3.org/2000/svg" viewBox="0 0 50 50" width="24" height="24">
	<title>balance-svg</title>
	<style>
		.s0 { fill: #ffffff } 
	</style>
	<g id="noun-compare-6682179">
		<g id="Group_340">
			<path id="Path_141" fill-rule="evenodd" class="s0" d="m36.8 49.1h-24q-0.2 0-0.3-0.1-0.2-0.1-0.3-0.2-0.1-0.1-0.1-0.2-0.1-0.2-0.1-0.3v-3.8q0-0.2 0.1-0.3 0-0.1 0.1-0.3 0.1-0.1 0.3-0.1 0.1-0.1 0.3-0.1h24q0.2 0 0.3 0.1 0.2 0 0.3 0.1 0.1 0.2 0.1 0.3 0.1 0.1 0.1 0.3v3.8q0 0.1-0.1 0.3 0 0.1-0.2 0.2-0.1 0.2-0.2 0.2-0.2 0.1-0.3 0.1zm-23.3-1.5h22.5v-2.3h-22.5z"/>
			<path id="Path_142" class="s0" d="m26.9 7.7q-0.2 0-0.3 0-0.2-0.1-0.3-0.2-0.1-0.1-0.2-0.2 0-0.2 0-0.3v-5.5h-2.7v5.5q0 0.3-0.3 0.5-0.2 0.2-0.5 0.2-0.3 0-0.6-0.2-0.2-0.2-0.2-0.5v-6.2q0-0.2 0.1-0.3 0-0.2 0.1-0.3 0.2-0.1 0.3-0.1 0.1-0.1 0.3-0.1h4.2q0.1 0 0.3 0.1 0.1 0 0.2 0.1 0.1 0.1 0.2 0.3 0 0.1 0 0.3v6.2c0.1 0.4-0.2 0.7-0.6 0.7z"/>
			<path id="Path_143" class="s0" d="m22.7 45.3q-0.2 0-0.3-0.1-0.2 0-0.3-0.2-0.1-0.1-0.1-0.2-0.1-0.2-0.1-0.3v-30.6q0-0.4 0.2-0.6 0.3-0.2 0.6-0.2 0.3 0 0.5 0.2 0.2 0.2 0.2 0.6v30.6q0 0.1 0 0.3-0.1 0.1-0.2 0.2-0.1 0.1-0.2 0.2-0.2 0.1-0.3 0.1z"/>
			<path id="Path_144" class="s0" d="m26.9 45.3q-0.2 0-0.3-0.1-0.2 0-0.3-0.2-0.1-0.1-0.2-0.2 0-0.2 0-0.3v-30.6q0-0.2 0-0.3 0.1-0.2 0.2-0.3 0.1-0.1 0.3-0.2 0.1 0 0.3 0 0.1 0 0.3 0 0.1 0.1 0.2 0.2 0.1 0.1 0.2 0.2 0 0.2 0 0.4v30.6q0 0.2 0 0.3-0.1 0.1-0.2 0.3-0.1 0.1-0.2 0.1-0.2 0.1-0.3 0.1z"/>
			<path id="Path_145" fill-rule="evenodd" class="s0" d="m24.8 15.2c-2 0-3.7-1.1-4.5-2.9-0.7-1.8-0.3-3.9 1.1-5.2 1.3-1.4 3.4-1.8 5.2-1.1 1.8 0.8 3 2.5 3 4.4q0 1-0.4 1.9-0.4 0.9-1 1.5-0.7 0.7-1.6 1.1-0.9 0.3-1.8 0.3zm0-8.1c-1.4 0-2.6 0.8-3.1 2.1-0.5 1.2-0.2 2.6 0.7 3.6 1 1 2.4 1.2 3.6 0.7 1.3-0.5 2.1-1.7 2.1-3.1q0-0.6-0.3-1.2-0.2-0.6-0.7-1.1-0.4-0.5-1.1-0.7-0.6-0.3-1.2-0.3z"/>
			<path id="Path_146" fill-rule="evenodd" class="s0" d="m17.5 29.3c-0.1 0-16.8 0-16.9 0q-0.1 0-0.2-0.1 0 0-0.1-0.1-0.1 0-0.1-0.1-0.1-0.1-0.1-0.1-0.1-0.1-0.1-0.2 0-0.1 0-0.2 0-0.1 0.1-0.2l8.3-18.2q0.1 0 0.1-0.1 0.1 0 0.1-0.1 0 0 0.1-0.1 0.1 0 0.1-0.1h11.9q0.4 0.1 0.6 0.3 0.2 0.2 0.2 0.5 0 0.3-0.2 0.6-0.2 0.2-0.6 0.2h-10.5l7.9 17.1q0 0.1 0.1 0.2 0 0.1 0 0.2-0.1 0-0.1 0.1 0 0.1-0.1 0.2 0 0.1-0.1 0.1 0 0.1-0.1 0.1-0.1 0-0.2 0 0 0-0.1 0zm-15.6-1.4h14.3l-7.2-15.7z"/>
			<path id="Path_147" class="s0" d="m9.4 37.4h-0.7c-1.2 0-2.3-0.3-3.4-0.7-1-0.5-2-1.1-2.8-1.9-0.8-0.8-1.4-1.8-1.8-2.8-0.5-1.1-0.7-2.2-0.7-3.4q0-0.3 0.2-0.5 0.3-0.2 0.6-0.2 0.3 0 0.5 0.2 0.2 0.2 0.2 0.5 0.1 1.5 0.6 2.8 0.6 1.3 1.6 2.3 1 1 2.3 1.6 1.3 0.5 2.7 0.5h0.8q1.5 0 2.8-0.5 1.3-0.6 2.3-1.6 1-1 1.6-2.3 0.5-1.3 0.5-2.8 0-0.3 0.2-0.5 0.3-0.2 0.6-0.2 0.3 0 0.5 0.2 0.3 0.2 0.3 0.5c0 1.2-0.3 2.3-0.7 3.4-0.5 1-1.1 2-2 2.8-0.8 0.8-1.7 1.5-2.8 1.9-1.1 0.4-2.2 0.7-3.4 0.7z"/>
			<path id="Path_148" fill-rule="evenodd" class="s0" d="m48.8 29.3c-0.1 0-16.9 0-16.9 0q-0.1 0-0.2-0.1-0.1 0-0.2-0.1 0 0-0.1-0.1 0-0.1-0.1-0.1 0-0.1 0-0.2 0-0.1 0-0.2 0-0.1 0-0.2l7.9-17.1h-10.4q-0.3 0-0.6-0.2-0.2-0.2-0.2-0.6 0-0.3 0.2-0.5 0.3-0.2 0.6-0.2c0.1 0 12 0 12 0q0.1 0.1 0.1 0.1 0.1 0.1 0.1 0.1 0.1 0.1 0.1 0.2l8.4 18.1q0 0.1 0 0.2 0 0.1 0 0.2 0 0.1 0 0.2-0.1 0.1-0.1 0.1c-0.1 0.4-0.3 0.4-0.6 0.4zm-15.5-1.4h14.4l-7.1-15.7z"/>
			<path id="Path_149" class="s0" d="m40.8 37.4h-0.8c-1.1 0-2.3-0.3-3.3-0.7-1.1-0.4-2.1-1.1-2.9-1.9-0.8-0.8-1.4-1.8-1.9-2.8-0.4-1.1-0.6-2.2-0.6-3.4q0-0.1 0-0.3 0.1-0.1 0.2-0.2 0.1-0.1 0.2-0.2 0.2 0 0.3 0 0.2-0.1 0.3 0 0.2 0.1 0.3 0.2 0.1 0.1 0.2 0.2 0 0.2 0 0.3 0 1.5 0.6 2.8 0.5 1.3 1.5 2.3 1 1 2.4 1.6 1.3 0.5 2.7 0.5h0.8q1.4 0 2.7-0.5 1.4-0.6 2.4-1.6 1-1 1.5-2.3 0.6-1.3 0.6-2.8 0-0.1 0-0.3 0.1-0.1 0.2-0.2 0.1-0.1 0.3-0.2 0.1 0 0.3 0 0.1-0.1 0.3 0 0.1 0.1 0.2 0.2 0.1 0.1 0.2 0.2 0 0.2 0 0.3c0 1.2-0.2 2.3-0.6 3.4-0.5 1-1.1 2-1.9 2.8-0.9 0.8-1.8 1.5-2.9 1.9-1 0.4-2.2 0.7-3.3 0.7z"/>
		</g>
	</g>
</svg>