<svg version="1.2" xmlns="http://www.w3.org/2000/svg" viewBox="0 0 50 50" width="24" height="24">
	<title>cloud-svg</title>
	<style>
		.s0 { fill: #ffffff } 
	</style>
	<g id="noun-cloud-3537505">
		<path id="Path_215" fill-rule="evenodd" class="s0" d="m5.8 38.4c-1.1-0.5-2.2-1.2-3.1-2.1-0.9-1-1.6-2.1-2-3.2-0.5-1.2-0.7-2.5-0.7-3.8q0-0.9 0.1-1.7 0.2-0.9 0.5-1.7 0.3-0.8 0.7-1.6 0.4-0.8 1-1.4 0.5-0.6 1.1-1.1 0.5-0.5 1.2-1 0.6-0.4 1.3-0.7 0.7-0.3 1.5-0.5c0-1.4 0.3-2.7 0.9-4 0.6-1.3 1.4-2.5 2.4-3.4 1-1 2.2-1.8 3.5-2.3 1.2-0.6 2.6-0.9 4-0.9q1.2 0 2.3 0.2 1.1 0.3 2.2 0.8 1 0.5 2 1.2 0.9 0.7 1.6 1.5 1.4-1.1 3-1.7 1.7-0.6 3.5-0.5 1.8 0.1 3.4 0.8 1.6 0.8 2.8 2.1 0.6 0.6 1.1 1.3 0.5 0.7 0.9 1.5 0.3 0.8 0.6 1.6 0.2 0.8 0.2 1.7 0.9 0.1 1.6 0.4 0.8 0.2 1.5 0.6 0.7 0.4 1.4 0.9 0.6 0.5 1.1 1.1 0.7 0.7 1.1 1.5 0.5 0.8 0.8 1.7 0.4 0.9 0.5 1.8 0.2 0.9 0.2 1.8c0 1.3-0.2 2.6-0.7 3.8-0.4 1.1-1.1 2.2-2 3.1-0.9 1-2 1.7-3.1 2.2-1.2 0.5-2.5 0.8-3.7 0.8h-31c-1.2 0-2.5-0.3-3.7-0.8zm-3.1-13.3q-0.3 0.6-0.6 1.3-0.2 0.7-0.4 1.4-0.1 0.8-0.1 1.5 0 1.6 0.6 3.1 0.5 1.5 1.7 2.7 1.1 1.2 2.6 1.8 1.4 0.7 3 0.7h31c2-0.1 4-1 5.5-2.5 1.4-1.4 2.3-3.4 2.4-5.5 0-2.1-0.7-4.1-2-5.7-1.4-1.6-3.3-2.6-5.4-2.9q-0.1 0-0.3-0.1-0.1 0-0.2-0.1-0.1-0.1-0.2-0.3 0-0.1 0-0.3 0-0.8-0.2-1.5-0.2-0.8-0.5-1.6-0.3-0.7-0.7-1.4-0.5-0.6-1-1.2-1.1-1.1-2.6-1.8-1.4-0.6-3-0.6-1.5 0-3 0.6-1.4 0.7-2.5 1.8-0.1 0.1-0.3 0.2-0.1 0-0.3 0-0.2 0-0.4-0.1-0.1 0-0.2-0.2-0.6-0.9-1.5-1.6-0.8-0.7-1.7-1.2-1-0.5-2-0.7-1.1-0.3-2.2-0.3c-1.2 0-2.4 0.3-3.6 0.8q-1.7 0.8-3 2.1c-0.9 0.9-1.5 2-2 3.2-0.4 1.1-0.7 2.4-0.6 3.6q0 0.2-0.1 0.3 0 0.1-0.1 0.2-0.1 0.1-0.2 0.2-0.2 0.1-0.3 0.1-0.7 0.1-1.4 0.4-0.6 0.2-1.2 0.6-0.6 0.3-1.2 0.8-0.5 0.4-1 1-0.4 0.6-0.8 1.2z"/>
	</g>
</svg>