<svg version="1.2" xmlns="http://www.w3.org/2000/svg" viewBox="0 0 50 51" width="24" height="24">
	<title>final-svg</title>
	<style>
		.s0 { fill: #ffffff } 
	</style>
	<g id="Group_354">
		<g id="noun-flexible-6455859">
			<g id="Group_353">
				<path id="Path_207" class="s0" d="m40.5 36q-0.2 0-0.3 0.1-0.1 0-0.2 0.1-0.1 0.1-0.2 0.3 0 0.1 0 0.2v2.1l-11.5-11.5q-0.2-0.2-0.5-0.2-0.3 0-0.5 0.2-0.2 0.2-0.2 0.5 0 0.3 0.2 0.5l11.5 11.5h-2.1q-0.3 0-0.5 0.2-0.2 0.2-0.2 0.5 0 0.3 0.2 0.5 0.2 0.2 0.5 0.2h3.7q0.1 0 0.3-0.1 0.1 0 0.2-0.1 0.1-0.1 0.2-0.3 0.1-0.1 0.1-0.3v-3.7q0-0.1-0.1-0.2 0-0.2-0.1-0.3-0.1-0.1-0.3-0.1-0.1-0.1-0.2-0.1z"/>
				<path id="Path_208" class="s0" d="m11.2 10.2h2.1q0.3 0 0.5-0.2 0.2-0.2 0.2-0.5 0-0.3-0.2-0.5-0.2-0.2-0.5-0.2h-3.7q-0.1 0-0.3 0.1-0.1 0-0.2 0.1-0.1 0.1-0.2 0.3-0.1 0.1-0.1 0.3v3.7q0 0.3 0.2 0.5 0.2 0.2 0.5 0.2 0.3 0 0.5-0.2 0.2-0.2 0.2-0.5v-2.1l11.5 11.5q0.2 0.2 0.5 0.2 0.3 0 0.5-0.2 0.2-0.2 0.2-0.5 0-0.3-0.2-0.5z"/>
				<path id="Path_209" fill-rule="evenodd" class="s0" d="m50 49.3q0 0.1 0 0.1 0 0.1 0 0.1-0.1 0.1-0.1 0.1v0.1l-0.1 0.1h-0.1v0.1h-0.1v0.1c0 0-0.3 0-0.4 0q0 0-0.1 0l-0.1-0.1c-3.2-1.2-13-2.1-24-2.1-11 0-20.8 0.9-24 2.2-0.1 0-0.2 0-0.2 0q0 0-0.1 0-0.1 0-0.1 0 0 0-0.1 0h-0.1v-0.1q0 0-0.1 0 0 0 0-0.1-0.1 0-0.1 0l-0.1-0.1q0-0.1 0-0.1 0 0-0.1 0 0 0 0-0.1 0 0 0-0.1 0 0 0-0.1 0 0 0-0.1 0 0 0-0.1 0.1 0 0-0.1c1.3-3.2 2.2-13 2.2-24 0-11-0.9-20.8-2.2-24q0 0 0-0.1 0 0 0-0.1 0-0.1 0-0.1 0-0.1 0-0.1 0-0.1 0-0.1 0.1 0 0.1-0.1v-0.1h0.1v-0.1h0.1v-0.1h0.1v-0.1h0.6c3.2 1.3 13 2.2 24 2.2 11 0 20.8-0.9 24-2.2h0.5l0.1 0.1h0.1v0.1h0.1v0.1h0.1v0.1q0 0 0.1 0 0 0 0 0.1 0 0 0 0.1 0 0 0 0.1 0 0.1 0 0.1 0 0.1 0 0.1-0.1 0 0 0.1c-1.3 3.2-2.2 13-2.2 24 0 11 0.9 20.8 2.2 24q0 0.1 0 0.1 0 0.1 0 0.1 0 0.1 0 0.1zm-1.8-1.1c-1.1-4.2-1.8-13.1-1.8-23.2 0-10.1 0.7-19 1.8-23.2-4.2 1.1-13.1 1.8-23.2 1.8-10.1 0-19-0.7-23.2-1.8 1.1 4.2 1.8 13.1 1.8 23.2 0 10.1-0.7 19-1.8 23.2 4.2-1.1 13.1-1.8 23.2-1.8 10.1 0 19 0.7 23.2 1.8z"/>
				<path id="Path_210" class="s0" d="m21.7 27.3l-11.5 11.5v-2.1q0-0.3-0.2-0.5-0.2-0.2-0.5-0.2-0.3 0-0.5 0.2-0.2 0.2-0.2 0.5v3.7q0 0.2 0.1 0.3 0.1 0.2 0.2 0.3 0.1 0.1 0.2 0.1 0.2 0.1 0.3 0.1h3.7q0.3 0 0.5-0.2 0.2-0.2 0.2-0.5 0-0.3-0.2-0.5-0.2-0.2-0.5-0.2h-2.1l11.5-11.5q0.2-0.2 0.2-0.5 0-0.3-0.2-0.5-0.2-0.2-0.5-0.2-0.3 0-0.5 0.2z"/>
				<path id="Path_211" class="s0" d="m40.9 9q0 0-0.1-0.1 0 0-0.1 0-0.1-0.1-0.2-0.1 0 0-0.1 0h-3.7q-0.3 0-0.5 0.2-0.2 0.2-0.2 0.5 0 0.3 0.2 0.5 0.2 0.2 0.5 0.2h2.1l-11.5 11.5q-0.2 0.2-0.2 0.5 0 0.3 0.2 0.5 0.2 0.2 0.5 0.2 0.3 0 0.5-0.2l11.5-11.5v2.1q0 0.3 0.2 0.5 0.2 0.2 0.5 0.2 0.3 0 0.5-0.2 0.2-0.2 0.2-0.5v-3.7q0-0.1 0-0.2-0.1-0.1-0.1-0.1 0-0.1-0.1-0.1 0-0.1-0.1-0.2z"/>
			</g>
		</g>
	</g>
</svg>