<svg version="1.2" xmlns="http://www.w3.org/2000/svg" viewBox="0 0 50 50" width="24" height="24">
	<title>food-delivery-svg</title>
	<style>
		.s0 { fill: #ffffff } 
	</style>
	<g id="noun-food-delivery-6626674">
		<path id="Path_212" fill-rule="evenodd" class="s0" d="m45.1 49.5q-0.1 0.1-0.1 0.2 0 0.1-0.1 0.1-0.1 0.1-0.2 0.1 0 0.1-0.1 0.1c-8.5 0-31 0-39.8 0q-0.4 0-0.8-0.2-0.3-0.1-0.6-0.4-0.2-0.3-0.3-0.7-0.1-0.4-0.1-0.7l3.6-24.1c0.4-3 0.8-5.7 0.9-6.6l0.3-1.5q0.1-1.1 0.2-1.9c0.3-1.1 0.4-1.8 0.4-2.1q-0.1 0.1-0.1 0.4 0-0.2 0-0.2 0-0.1 0-0.1 0 0 0.1-0.1 0 0 0 0 0 0 0 0 0 0 0-0.1 0 0 0 0.1 0 0 0 0 0-0.1 0-0.1 0 0 0 0l4.5-7.1 0.3-3q0-0.3 0.2-0.6 0.1-0.3 0.4-0.5 0.2-0.2 0.5-0.4 0.3-0.1 0.7-0.1h25.6q0.3 0 0.7 0.2 0.3 0.1 0.6 0.4 0.2 0.3 0.3 0.6 0.2 0.4 0.1 0.7l-0.2 2.8 3.4 7.1q0 0 0 0.1 0 0.1 0 0.1 0 0 0 0.1c0 0.1-0.4 37.3-0.4 37.4zm-37.1-35.6q0 0.3-0.1 0.7c0-0.1 0.2-1.2 0.3-2q0-0.3 0.1-0.4 0 0.1-0.1 0.4-0.1 0.5-0.2 1.3zm-0.5 3.4l-0.2 1.4c0.3-1.8 0.3-2.1 0.2-1.4zm36.9-4.6h-7l-5.2 35.4 5.8-4.4q0.1-0.1 0.2-0.1 0.1 0 0.2 0 0.1 0 0.2 0 0.1 0.1 0.1 0.1l5.2 4.4zm-0.3-1.2l-2.6-5.4-3.5 5.4zm-29.9-7.3h26.8l0.2-2.3q0-0.1 0-0.2-0.1-0.2-0.2-0.3-0.1 0-0.2-0.1-0.1 0-0.2 0c-0.1 0-25.7 0-25.8 0q-0.1 0-0.2 0.1-0.1 0.1-0.1 0.2-0.1 0.1-0.1 0.2zm-4.2 7.3h26.6l3.9-6.1h-26.6zm-5.6 37.2q0.1 0.1 0.1 0.1 0.1 0 0.2 0 0 0 0.1 0h26.1l5.3-36.1h-26.8l-0.3 1.9c-0.4 3.6-0.7 4.3-1.3 9.4l-3.6 24.2q0 0 0 0.1 0 0 0 0.1 0 0.1 0.1 0.1 0 0.1 0 0.1 0.1 0.1 0.1 0.1zm38.5 0.1l-4.6-3.8-5.1 3.8z"/>
		<path id="Path_213" class="s0" d="m38.6 40.5q0.2 0 0.3-0.1 0.1 0 0.2-0.1 0.1 0 0.1-0.2 0.1-0.1 0.1-0.2l1.9-23.9q0.1-0.3-0.1-0.5-0.2-0.2-0.4-0.2-0.3 0-0.5 0.1-0.2 0.2-0.2 0.5l-1.9 23.9q0 0.1 0 0.3 0.1 0.1 0.1 0.2 0.1 0.1 0.2 0.1 0.1 0.1 0.2 0.1z"/>
		<path id="Path_214" fill-rule="evenodd" class="s0" d="m13.4 36.4c-2.8-3.4-1.2-8.7 2.1-11.4 3.2-2.8 8.6-3.4 11.4 0q0.5 0.8 0.9 1.6 0.4 0.9 0.5 1.8 0.1 1 0 1.9-0.1 1-0.4 1.8c-1.9 5.8-10.1 9.3-14.5 4.3zm13.8-7.2q0-0.1 0-0.3-0.1-0.1-0.1-0.3 0-0.1 0-0.3h-12.9q-0.3 0.6-0.6 1.2-0.2 0.5-0.3 1.1-0.1 0.7-0.2 1.3 0 0.6 0.1 1.2h12.9q0.2-0.4 0.4-0.8 0.2-0.5 0.4-0.9 0.1-0.5 0.2-0.9 0-0.5 0.1-1 0-0.1 0-0.3zm-7.5-5.1q-0.9 0.2-1.8 0.7-0.8 0.4-1.6 1-0.7 0.6-1.3 1.3h11.8q-0.4-0.7-0.9-1.3-0.5-0.7-1.2-1.1-0.7-0.5-1.5-0.7-0.8-0.2-1.6-0.2-1 0.1-1.9 0.3zm0.9 13.3q0.9-0.3 1.8-0.7 0.8-0.4 1.6-1 0.7-0.6 1.3-1.4h-11.8q0.4 0.8 0.9 1.4 0.5 0.6 1.2 1.1 0.7 0.4 1.5 0.6 0.8 0.2 1.6 0.2 1 0 1.9-0.2z"/>
	</g>
</svg>