<svg version="1.2" xmlns="http://www.w3.org/2000/svg" viewBox="0 0 43 50" width="21" height="24">
	<title>location-pin-svg</title>
	<style>
		.s0 { fill: #ffffff } 
	</style>
	<g id="noun-location-6985641">
		<g id="Group_341">
			<path id="Path_150" fill-rule="evenodd" class="s0" d="m28.2 17.7q-0.6 1.3-1.7 2.4-1 1.1-2.4 1.6-1.4 0.6-2.9 0.6c-3 0-5.8-1.8-6.9-4.6-1.2-2.8-0.5-6.1 1.6-8.2 2.2-2.2 5.4-2.8 8.2-1.7 2.8 1.2 4.6 3.9 4.6 7q0 1.5-0.5 2.9zm-12.4-0.7q0.5 1.1 1.3 1.9 0.8 0.8 1.9 1.3 1.1 0.4 2.2 0.4c2.4 0 4.5-1.4 5.4-3.6 0.9-2.2 0.4-4.7-1.2-6.3-1.7-1.7-4.2-2.2-6.4-1.3-2.2 0.9-3.6 3-3.6 5.4q0 1.2 0.4 2.2z"/>
			<path id="Path_151" fill-rule="evenodd" class="s0" d="m0 39.9c0-4 4.8-7.6 12.3-9.2-3.1-4.5-5.9-10.2-5.9-15.9 0.1-3.9 1.6-7.6 4.4-10.4 2.8-2.7 6.5-4.3 10.4-4.3 3.9 0 7.7 1.6 10.4 4.3 2.8 2.8 4.4 6.5 4.4 10.4 0 5.7-2.8 11.4-5.9 15.9 7.6 1.6 12.3 5.2 12.3 9.2 0 5.7-9.3 10.1-21.2 10.1-11.9 0-21.2-4.4-21.2-10.1zm16.2-37.2c-1.6 0.6-3 1.6-4.2 2.8-1.3 1.2-2.2 2.7-2.9 4.3-0.7 1.6-1 3.3-1 5 0 10.4 10.5 21.4 13.1 24 2.6-2.6 13.1-13.6 13.1-24 0-1.7-0.3-3.4-1-5-0.6-1.6-1.6-3.1-2.8-4.3-1.2-1.2-2.7-2.2-4.3-2.8-1.5-0.7-3.3-1-5-1-1.7 0-3.4 0.3-5 1zm-14.5 37.2c0 4.6 8.9 8.4 19.5 8.4 10.6 0 19.6-3.8 19.6-8.4 0-3.3-4.7-6.3-11.7-7.7q-0.8 1.1-1.7 2.2-0.9 1.1-1.8 2.1-0.9 1.1-1.8 2.1-1 1-2 1.9-0.1 0.1-0.3 0.2-0.1 0-0.3 0-0.1 0-0.3 0-0.1-0.1-0.2-0.2-1-0.9-2-1.9-1-1-1.9-2.1-0.9-1-1.8-2.1-0.8-1.1-1.6-2.2c-7.1 1.4-11.7 4.4-11.7 7.7z"/>
		</g>
	</g>
</svg>