<svg version="1.2" xmlns="http://www.w3.org/2000/svg" viewBox="0 0 49 47" width="24" height="23">
	<title>pie-svg</title>
	<style>
		.s0 { fill: #ffffff } 
	</style>
	<g id="noun-statistics-5997846">
		<g id="Layer_18">
			<path id="Path_139" fill-rule="evenodd" class="s0" d="m22.3 22c0 0.1 0 20.4 0 20.5q-0.1 0.2-0.2 0.3-0.1 0.1-0.3 0.2-0.1 0-0.3 0c-7.7 0-14.8-4.1-18.6-10.7-3.9-6.7-3.9-14.9 0-21.5 3.8-6.7 10.9-10.8 18.6-10.8 7.7 0 14.8 4.1 18.6 10.7q0.1 0.1 0.1 0.2 0 0 0 0.1 0 0 0 0.1 0 0.1 0 0.1 0 0 0 0.1 0 0 0 0.1 0 0.1 0 0.1-0.1 0.1-0.1 0.1 0 0 0 0.1-0.1 0-0.1 0 0 0.1 0 0.1-0.1 0-0.1 0.1 0 0-0.1 0zm-5.7-19.7q-2.5 0.6-4.7 1.8-2.2 1.2-4 3-1.8 1.7-3.2 3.8l16.8 9.7 16.8-9.7q-1.4-2.1-3.2-3.8-1.9-1.8-4-3-2.2-1.2-4.7-1.8-2.4-0.6-4.9-0.6-2.5 0-4.9 0.6zm-13.5 26.6c0.9 2.4 2.3 4.5 4.1 6.4 1.7 1.8 3.8 3.3 6.1 4.3 2.4 1 4.8 1.6 7.4 1.7v-19.3l-16.8-9.7q-0.5 1.1-1 2.2-0.4 1.1-0.7 2.3-0.3 1.2-0.4 2.3-0.2 1.2-0.2 2.4c0 2.6 0.5 5.1 1.5 7.4z"/>
			<path id="Path_140" fill-rule="evenodd" class="s0" d="m45.8 13.9c1.9 3.3 2.9 7 2.9 10.8 0 3.8-1 7.5-2.9 10.7-1.9 3.3-4.6 6-7.9 7.9-3.3 1.9-7 2.9-10.8 2.9q-0.1 0-0.3-0.1-0.1 0-0.2-0.1-0.2-0.2-0.2-0.3-0.1-0.2-0.1-0.3c0-0.1 0-20.9 0-20.9q0 0 0-0.1 0-0.1 0-0.1 0 0 0.1 0 0 0 0-0.1l0.2-0.2q0 0 0.1 0 0-0.1 0-0.1l17.9-10.2q0-0.1 0.1-0.1 0 0 0.1 0l0.1-0.1q0.1 0 0.1 0 0 0 0.1 0 0.1 0 0.1 0 0 0.1 0.1 0.1 0.1 0 0.1 0 0 0 0 0.1c0.1 0 0.2 0 0.2 0q0 0.1 0 0.1 0 0 0.1 0 0 0 0 0.1zm-8.4 27.8c2.9-1.8 5.3-4.2 7-7.1 1.6-2.9 2.5-6.2 2.6-9.5 0.1-3.3-0.7-6.6-2.2-9.6l-16.8 9.7v19.3c3.3-0.1 6.6-1.1 9.4-2.8z"/>
		</g>
	</g>
</svg>