<svg version="1.2" xmlns="http://www.w3.org/2000/svg" viewBox="0 0 24 25" width="24" height="25">
	<title>star-svg</title>
	<style>
		.s0 { fill: #ffffff } 
	</style>
	<g id="noun-star-6536830">
		<path id="Path_153" fill-rule="evenodd" class="s0" d="m19.4 21.4q0 0.2-0.1 0.4 0 0.3-0.2 0.4-0.3 0.1-0.5 0.1-0.3 0.1-0.4-0.1l-6.4-3.3-6.3 3.3q-0.2 0.2-0.4 0.1-0.3 0-0.5-0.1-0.2-0.1-0.3-0.4-0.1-0.2 0-0.4l1.2-7-5.1-5q-0.2-0.2-0.3-0.4 0-0.3 0.1-0.5 0-0.2 0.2-0.4 0.2-0.2 0.5-0.2l7-1 3.2-6.4q0.1-0.2 0.3-0.3 0.2-0.2 0.4-0.2 0.3 0 0.5 0.2 0.2 0.1 0.3 0.3l3.2 6.4 7 1q0.3 0 0.4 0.2 0.2 0.2 0.3 0.4 0.1 0.2 0 0.5 0 0.2-0.2 0.4l-5.1 5zm-0.7 0.2q0 0 0 0 0 0 0-0.1 0 0 0 0l-1.3-7.2q0-0.1 0-0.1 0 0 0.1-0.1 0 0 0-0.1 0.1 0 0 0l5.3-5.1q0-0.1 0 0 0.1-0.1 0-0.1 0.1-0.1 0-0.1 0.1 0 0 0 0.1-0.1 0-0.1 0 0 0 0 0 0-0.1 0 0 0 0 0l-7.2-1.1q-0.1 0-0.1 0-0.1 0-0.1-0.1 0 0-0.1 0 0 0 0-0.1l-3.2-6.5q0-0.1-0.1-0.1 0 0-0.1 0 0 0-0.1 0 0 0 0 0.1l-3.2 6.5q-0.1 0.1-0.1 0.1 0 0-0.1 0.1 0 0 0 0-0.1 0-0.1 0l-7.2 1.1q-0.1 0-0.1 0 0 0 0 0 0 0-0.1 0 0 0 0 0.1 0 0 0 0 0 0 0 0.1 0 0 0 0.1 0.1-0.1 0.1 0l5.2 5.1q0 0 0.1 0 0 0.1 0 0.1 0 0.1 0 0.1 0 0 0 0.1l-1.2 7.2q0 0 0 0 0 0.1 0 0.1 0 0 0 0 0 0 0 0 0 0 0.1 0.1 0-0.1 0 0 0-0.1 0.1 0 0-0.1 0 0l6.5-3.4q0-0.1 0-0.1 0 0 0 0 0.1 0 0.1 0 0 0 0 0 0 0 0.1 0 0 0 0 0 0 0 0.1 0 0 0 0 0.1l6.5 3.4q0.1-0.1 0 0 0.1-0.1 0.1 0 0-0.1 0.1-0.1-0.1 0 0 0zm4.9-4q0 0 0 0.1-0.1 0.1-0.2 0.1 0 0-0.1 0-0.1 0-0.1 0l-2.1-1.1q-0.1-0.1-0.2-0.2 0-0.2 0.1-0.3 0.1-0.1 0.2-0.2 0.1 0 0.2 0l2.1 1.1q0.1 0.1 0.2 0.1 0 0.1 0 0.1 0 0.1 0 0.2 0 0-0.1 0.1zm-20.9-1.4q0 0 0 0.1 0 0.1 0 0.2 0 0 0 0.1-0.1 0-0.1 0.1l-2.1 1.1q0 0-0.1 0 0 0 0 0-0.1 0-0.1 0-0.1 0-0.2-0.1-0.1-0.1-0.1-0.2-0.1-0.1 0-0.2 0-0.1 0.2-0.2l2-1.1q0.1 0 0.2 0 0 0 0.1 0 0.1 0 0.1 0.1 0.1 0 0.1 0.1zm0.1-13.3q-0.1-0.1-0.1-0.3 0-0.1 0.1-0.2 0.1-0.2 0.3-0.2 0.1 0.1 0.2 0.2l1.7 1.7q0.1 0.1 0.1 0.2 0 0.1-0.1 0.3-0.1 0-0.2 0.1-0.2 0-0.3-0.1zm15.8 1.7q0-0.1 0-0.2 0 0-0.1-0.1 0.1-0.1 0.1-0.1 0-0.1 0-0.1l1.7-1.7q0.1-0.1 0.3-0.2 0.1 0 0.2 0.2 0.2 0.1 0.2 0.2-0.1 0.2-0.2 0.3l-1.7 1.7q0 0-0.1 0 0 0.1-0.1 0.1-0.1 0-0.1-0.1-0.1 0-0.2 0zm-6.4 17.8v2.3q0 0.1-0.1 0.2-0.1 0.1-0.2 0.1-0.2 0-0.3-0.1-0.1-0.1-0.1-0.2v-2.3q0-0.2 0.1-0.3 0.1-0.1 0.3-0.1 0.1 0 0.2 0.1 0.1 0.1 0.1 0.3z"/>
	</g>
</svg>